<svg width="50" height="51" viewBox="0 0 50 51" fill="none" xmlns="http://www.w3.org/2000/svg">
<rect y="0.836914" width="50" height="50" rx="25" fill="#71879C" fill-opacity="0.1"/>
<path d="M18.5825 33.8369H31.4175C33.1295 33.8369 34 32.9669 34 31.3121V20.3523C34 18.7069 33.1295 17.8369 31.4175 17.8369H18.5825C16.8802 17.8369 16 18.688 16 20.3523V31.3121C16 32.9764 16.8802 33.8369 18.5825 33.8369ZM18.5341 32.9197C17.4895 32.9197 16.9285 32.3806 16.9285 31.3405V23.3215C16.9285 22.2814 17.4895 21.7424 18.5341 21.7424H31.4562C32.4815 21.7424 33.0715 22.2814 33.0715 23.3215V31.3405C33.0715 32.3806 32.4815 32.9197 31.4562 32.9197H18.5341ZM23.1671 24.8913H23.6991C23.9699 24.8913 24.0279 24.8345 24.0279 24.5792V24.0497C24.0279 23.8038 23.9699 23.7471 23.6991 23.7471H23.1671C22.8963 23.7471 22.8383 23.8038 22.8383 24.0497V24.5792C22.8383 24.8345 22.8963 24.8913 23.1671 24.8913ZM26.3009 24.8913H26.8329C27.1037 24.8913 27.1617 24.8345 27.1617 24.5792V24.0497C27.1617 23.8038 27.1037 23.7471 26.8329 23.7471H26.3009C26.0301 23.7471 25.9721 23.8038 25.9721 24.0497V24.5792C25.9721 24.8345 26.0301 24.8913 26.3009 24.8913ZM29.425 24.8913H29.9667C30.2278 24.8913 30.2955 24.8345 30.2955 24.5792V24.0497C30.2955 23.8038 30.2278 23.7471 29.9667 23.7471H29.425C29.1639 23.7471 29.0962 23.8038 29.0962 24.0497V24.5792C29.0962 24.8345 29.1639 24.8913 29.425 24.8913ZM20.0333 27.9078H20.575C20.8361 27.9078 20.9038 27.8511 20.9038 27.5958V27.0662C20.9038 26.8109 20.8361 26.7542 20.575 26.7542H20.0333C19.7722 26.7542 19.7045 26.8109 19.7045 27.0662V27.5958C19.7045 27.8511 19.7722 27.9078 20.0333 27.9078ZM23.1671 27.9078H23.6991C23.9699 27.9078 24.0279 27.8511 24.0279 27.5958V27.0662C24.0279 26.8109 23.9699 26.7542 23.6991 26.7542H23.1671C22.8963 26.7542 22.8383 26.8109 22.8383 27.0662V27.5958C22.8383 27.8511 22.8963 27.9078 23.1671 27.9078ZM26.3009 27.9078H26.8329C27.1037 27.9078 27.1617 27.8511 27.1617 27.5958V27.0662C27.1617 26.8109 27.1037 26.7542 26.8329 26.7542H26.3009C26.0301 26.7542 25.9721 26.8109 25.9721 27.0662V27.5958C25.9721 27.8511 26.0301 27.9078 26.3009 27.9078ZM29.425 27.9078H29.9667C30.2278 27.9078 30.2955 27.8511 30.2955 27.5958V27.0662C30.2955 26.8109 30.2278 26.7542 29.9667 26.7542H29.425C29.1639 26.7542 29.0962 26.8109 29.0962 27.0662V27.5958C29.0962 27.8511 29.1639 27.9078 29.425 27.9078ZM20.0333 30.9149H20.575C20.8361 30.9149 20.9038 30.8582 20.9038 30.6029V30.0828C20.9038 29.8275 20.8361 29.7707 20.575 29.7707H20.0333C19.7722 29.7707 19.7045 29.8275 19.7045 30.0828V30.6029C19.7045 30.8582 19.7722 30.9149 20.0333 30.9149ZM23.1671 30.9149H23.6991C23.9699 30.9149 24.0279 30.8582 24.0279 30.6029V30.0828C24.0279 29.8275 23.9699 29.7707 23.6991 29.7707H23.1671C22.8963 29.7707 22.8383 29.8275 22.8383 30.0828V30.6029C22.8383 30.8582 22.8963 30.9149 23.1671 30.9149ZM26.3009 30.9149H26.8329C27.1037 30.9149 27.1617 30.8582 27.1617 30.6029V30.0828C27.1617 29.8275 27.1037 29.7707 26.8329 29.7707H26.3009C26.0301 29.7707 25.9721 29.8275 25.9721 30.0828V30.6029C25.9721 30.8582 26.0301 30.9149 26.3009 30.9149Z" fill="#0898A0"/>
</svg>
