<svg width="50" height="51" viewBox="0 0 50 51" fill="none" xmlns="http://www.w3.org/2000/svg">
<rect y="0.836914" width="50" height="50" rx="25" fill="#71879C" fill-opacity="0.1"/>
<path d="M25.0919 30.1767C25.7047 30.1767 25.9944 29.7533 25.9944 29.1851V28.6614C26.0167 27.213 26.5181 26.5779 28.2451 25.3857C30.117 24.0932 31.1866 22.7227 31.1866 20.7506C31.1866 17.6976 28.702 15.8369 25.5599 15.8369C23.1755 15.8369 21.1253 17.0514 20.2786 19.1015C20.078 19.5806 20 20.0375 20 20.4052C20 20.9177 20.2897 21.2631 20.8357 21.2631C21.2925 21.2631 21.5933 20.9957 21.727 20.55C22.2173 18.4553 23.6546 17.5082 25.5042 17.5082C27.6546 17.5082 29.3482 18.7784 29.3482 20.7506C29.3482 22.2547 28.4457 23.1572 26.9749 24.2046C25.2479 25.4302 24.1671 26.6001 24.1671 28.4386V29.2074C24.1671 29.7756 24.4791 30.1767 25.0919 30.1767ZM25.1031 35.8369C25.8384 35.8369 26.429 35.2352 26.429 34.511C26.429 33.7868 25.8384 33.1962 25.1031 33.1962C24.3788 33.1962 23.7883 33.7868 23.7883 34.511C23.7883 35.2352 24.3788 35.8369 25.1031 35.8369Z" fill="#0898A0"/>
</svg>
