<svg width="50" height="51" viewBox="0 0 50 51" fill="none" xmlns="http://www.w3.org/2000/svg">
<rect y="0.836914" width="50" height="50" rx="25" fill="#71879C" fill-opacity="0.1"/>
<path d="M25 36.8688C25.3069 36.8688 25.602 36.8449 25.9207 36.8089L26.5345 38.0068C26.6525 38.2583 26.8768 38.3661 27.1719 38.3302C27.4551 38.2823 27.6204 38.1026 27.6558 37.8031L27.8447 36.4736C28.4348 36.3178 29.0132 36.0903 29.568 35.8387L30.5359 36.7251C30.7365 36.9287 30.9844 36.9527 31.2559 36.8089C31.492 36.6772 31.5746 36.4496 31.5274 36.1501L31.2559 34.8445C31.7517 34.4972 32.2356 34.1019 32.6605 33.6467L33.8645 34.1618C34.136 34.2815 34.3602 34.2217 34.5727 33.9701C34.7734 33.7665 34.7852 33.5149 34.6199 33.2634L33.9235 32.1255C34.2776 31.6224 34.5727 31.0834 34.8324 30.5084L36.1544 30.5803C36.4377 30.5923 36.6501 30.4485 36.7446 30.173C36.839 29.9095 36.7564 29.6699 36.5321 29.4903L35.5052 28.6518C35.6586 28.0649 35.7767 27.454 35.8239 26.8072L37.0633 26.4119C37.3466 26.3161 37.5 26.1244 37.5 25.8249C37.5 25.5375 37.3466 25.3458 37.0633 25.25L35.8239 24.8427C35.7767 24.2079 35.6586 23.597 35.5052 23.0101L36.5321 22.1716C36.7564 22.0039 36.8272 21.7763 36.7446 21.5008C36.6501 21.2253 36.4377 21.0816 36.1544 21.0936L34.8324 21.1415C34.5727 20.5785 34.2776 20.0395 33.9235 19.5364L34.6199 18.3865C34.7852 18.1589 34.7616 17.9074 34.5727 17.7037C34.3602 17.4522 34.136 17.3923 33.8645 17.5121L32.6605 18.0032C32.2356 17.572 31.7517 17.1767 31.2559 16.8293L31.5274 15.5237C31.5746 15.2243 31.492 14.9847 31.2559 14.8649C30.9844 14.7092 30.7483 14.7331 30.5359 14.9488L29.568 15.8232C29.0132 15.5596 28.4348 15.356 27.8447 15.1883L27.6558 13.8707C27.6204 13.5713 27.4433 13.3916 27.1719 13.3437C26.8768 13.3077 26.6525 13.4155 26.5345 13.6551L25.9207 14.8529C25.602 14.829 25.3069 14.805 25 14.805C24.6931 14.805 24.398 14.829 24.0793 14.8529L23.4537 13.6551C23.3475 13.4155 23.1232 13.3077 22.8163 13.3437C22.5449 13.3916 22.3796 13.5713 22.3442 13.8707L22.1553 15.1883C21.5652 15.356 20.9868 15.5596 20.4202 15.8232L19.4523 14.9488C19.2398 14.7451 19.0038 14.7212 18.7441 14.8649C18.508 14.9847 18.4136 15.2243 18.4726 15.5237L18.7441 16.8293C18.2483 17.1767 17.7644 17.572 17.3277 18.0032L16.1237 17.5121C15.864 17.3923 15.628 17.4522 15.4155 17.7037C15.2266 17.9074 15.2148 18.1589 15.3683 18.3865L16.0765 19.5364C15.7224 20.0395 15.4273 20.5785 15.1676 21.1415L13.8338 21.0936C13.5505 21.0816 13.3381 21.2253 13.2554 21.5008C13.1492 21.7763 13.22 22.0039 13.4561 22.1716L14.4948 23.0101C14.3414 23.597 14.2233 24.2079 14.1761 24.8427L12.9249 25.25C12.6416 25.3458 12.5 25.5375 12.5 25.8249C12.5 26.1244 12.6416 26.3161 12.9249 26.4119L14.1761 26.8191C14.2233 27.454 14.3296 28.0649 14.4948 28.6518L13.4561 29.4903C13.2318 29.658 13.161 29.8975 13.2554 30.173C13.3381 30.4485 13.5505 30.5923 13.8338 30.5803L15.1676 30.5084C15.4273 31.0834 15.7224 31.6224 16.0647 32.1255L15.3683 33.2634C15.203 33.5149 15.2266 33.7665 15.4155 33.9701C15.628 34.2217 15.864 34.2815 16.1237 34.1618L17.3277 33.6467C17.7644 34.1019 18.2483 34.4972 18.7441 34.8445L18.4726 36.1501C18.4136 36.4496 18.508 36.6772 18.7441 36.8089C19.0156 36.9527 19.2517 36.9287 19.4523 36.7251L20.4202 35.8387C20.9868 36.0903 21.5652 36.3178 22.1553 36.4736L22.3442 37.8031C22.3796 38.1026 22.5449 38.2823 22.8281 38.3302C23.1232 38.3661 23.3475 38.2583 23.4537 38.0068L24.0793 36.8089C24.3862 36.8449 24.6931 36.8688 25 36.8688ZM27.7148 25.1901C27.2781 23.8246 26.2512 23.0101 24.9882 23.0101C24.7639 23.0101 24.5279 23.046 24.1856 23.1418L20.8097 17.2845C22.0609 16.6497 23.4773 16.2903 25 16.2903C30.0165 16.2903 33.9589 20.1832 34.2776 25.1901H27.7148ZM15.7106 25.8369C15.7106 22.5549 17.2568 19.6921 19.6648 17.9673L23.0642 23.8485C22.474 24.4475 22.1671 25.1422 22.1671 25.8848C22.1671 26.6275 22.4622 27.2983 23.0878 27.9211L19.6294 33.6707C17.2332 31.9458 15.7106 29.095 15.7106 25.8369ZM23.5482 25.8729C23.5482 25.0583 24.2328 24.4235 25 24.4235C25.8026 24.4235 26.4636 25.0583 26.4636 25.8729C26.4636 26.6874 25.8026 27.3462 25 27.3462C24.2328 27.3462 23.5482 26.6874 23.5482 25.8729ZM25 35.3835C23.4655 35.3835 22.0255 35.0242 20.7625 34.3654L24.2092 28.6398C24.5279 28.7237 24.7639 28.7476 24.9882 28.7476C26.263 28.7476 27.3017 27.9092 27.7266 26.5077H34.2658C33.9471 31.5026 30.0047 35.3835 25 35.3835Z" fill="#0898A0"/>
</svg>
